<mxfile host="app.diagrams.net" modified="2023-05-26T01:02:21.331Z" agent="Mozilla/5.0 (Windows NT 10.0; Win64; x64) AppleWebKit/537.36 (KHTML, like Gecko) Chrome/113.0.0.0 Safari/537.36" etag="v0rVspdGBmi6qaKU0kBv" version="21.3.2" type="device">
  <diagram name="페이지-1" id="Cw3_gSCWrAGt-vMbcASF">
    <mxGraphModel dx="1687" dy="889" grid="1" gridSize="10" guides="1" tooltips="1" connect="1" arrows="1" fold="1" page="1" pageScale="1" pageWidth="4681" pageHeight="3300" math="0" shadow="0">
      <root>
        <mxCell id="0" />
        <mxCell id="1" parent="0" />
        <mxCell id="457C8kTD09BuJkiLqrI9-15" style="rounded=0;orthogonalLoop=1;jettySize=auto;html=1;entryX=0.473;entryY=-0.021;entryDx=0;entryDy=0;entryPerimeter=0;exitX=0.5;exitY=1;exitDx=0;exitDy=0;" edge="1" parent="1" source="457C8kTD09BuJkiLqrI9-1" target="457C8kTD09BuJkiLqrI9-2">
          <mxGeometry relative="1" as="geometry" />
        </mxCell>
        <mxCell id="457C8kTD09BuJkiLqrI9-16" style="edgeStyle=none;shape=connector;rounded=0;orthogonalLoop=1;jettySize=auto;html=1;entryX=0.5;entryY=0;entryDx=0;entryDy=0;labelBackgroundColor=default;strokeColor=default;fontFamily=Helvetica;fontSize=11;fontColor=default;endArrow=classic;exitX=0.5;exitY=1;exitDx=0;exitDy=0;" edge="1" parent="1" source="457C8kTD09BuJkiLqrI9-1" target="457C8kTD09BuJkiLqrI9-4">
          <mxGeometry relative="1" as="geometry" />
        </mxCell>
        <mxCell id="457C8kTD09BuJkiLqrI9-17" style="edgeStyle=none;shape=connector;rounded=0;orthogonalLoop=1;jettySize=auto;html=1;entryX=0.5;entryY=0;entryDx=0;entryDy=0;labelBackgroundColor=default;strokeColor=default;fontFamily=Helvetica;fontSize=11;fontColor=default;endArrow=classic;" edge="1" parent="1" source="457C8kTD09BuJkiLqrI9-1" target="457C8kTD09BuJkiLqrI9-6">
          <mxGeometry relative="1" as="geometry" />
        </mxCell>
        <mxCell id="457C8kTD09BuJkiLqrI9-18" style="edgeStyle=none;shape=connector;rounded=0;orthogonalLoop=1;jettySize=auto;html=1;labelBackgroundColor=default;strokeColor=default;fontFamily=Helvetica;fontSize=11;fontColor=default;endArrow=classic;exitX=0.5;exitY=1;exitDx=0;exitDy=0;" edge="1" parent="1" source="457C8kTD09BuJkiLqrI9-1" target="457C8kTD09BuJkiLqrI9-7">
          <mxGeometry relative="1" as="geometry" />
        </mxCell>
        <mxCell id="457C8kTD09BuJkiLqrI9-19" style="edgeStyle=none;shape=connector;rounded=0;orthogonalLoop=1;jettySize=auto;html=1;labelBackgroundColor=default;strokeColor=default;fontFamily=Helvetica;fontSize=11;fontColor=default;endArrow=classic;exitX=0.5;exitY=1;exitDx=0;exitDy=0;" edge="1" parent="1" source="457C8kTD09BuJkiLqrI9-1" target="457C8kTD09BuJkiLqrI9-5">
          <mxGeometry relative="1" as="geometry" />
        </mxCell>
        <mxCell id="457C8kTD09BuJkiLqrI9-1" value="&lt;span style=&quot;font-size: 24px;&quot;&gt;학생정보&lt;/span&gt;" style="rounded=1;arcSize=10;whiteSpace=wrap;html=1;align=center;" vertex="1" parent="1">
          <mxGeometry x="700" y="30" width="300" height="120" as="geometry" />
        </mxCell>
        <mxCell id="457C8kTD09BuJkiLqrI9-2" value="&lt;span style=&quot;font-size: 24px;&quot;&gt;학번&lt;/span&gt;" style="ellipse;whiteSpace=wrap;html=1;align=center;fontStyle=4;" vertex="1" parent="1">
          <mxGeometry x="50" y="470" width="250" height="120" as="geometry" />
        </mxCell>
        <mxCell id="457C8kTD09BuJkiLqrI9-4" value="&lt;font style=&quot;font-size: 24px;&quot;&gt;이름&lt;/font&gt;" style="ellipse;whiteSpace=wrap;html=1;align=center;" vertex="1" parent="1">
          <mxGeometry x="400" y="480" width="260" height="120" as="geometry" />
        </mxCell>
        <mxCell id="457C8kTD09BuJkiLqrI9-5" value="&lt;font style=&quot;font-size: 24px;&quot;&gt;전화번호&lt;/font&gt;" style="ellipse;whiteSpace=wrap;html=1;align=center;" vertex="1" parent="1">
          <mxGeometry x="1400" y="470" width="260" height="120" as="geometry" />
        </mxCell>
        <mxCell id="457C8kTD09BuJkiLqrI9-6" value="&lt;font style=&quot;font-size: 24px;&quot;&gt;학과&lt;/font&gt;" style="ellipse;whiteSpace=wrap;html=1;align=center;" vertex="1" parent="1">
          <mxGeometry x="730" y="480" width="260" height="120" as="geometry" />
        </mxCell>
        <mxCell id="457C8kTD09BuJkiLqrI9-7" value="&lt;font style=&quot;font-size: 24px;&quot;&gt;학년&lt;/font&gt;" style="ellipse;whiteSpace=wrap;html=1;align=center;" vertex="1" parent="1">
          <mxGeometry x="1060" y="480" width="260" height="120" as="geometry" />
        </mxCell>
      </root>
    </mxGraphModel>
  </diagram>
</mxfile>
